<svg id="ez05om0vgvk91" xmlns="http://www.w3.org/2000/svg" xmlns:xlink="http://www.w3.org/1999/xlink" viewBox="0 0 2559 853" shape-rendering="geometricPrecision" text-rendering="geometricPrecision"><g id="ez05om0vgvk92" transform="matrix(0.10000000000000 0 0 -0.10000000000000 0 853)"><path id="ez05om0vgvk93" d="M14431,7325C14413,7317,14361,7275,14316,7232C14198,7119,14209,7124,14160,7165C14126,7193,14110,7200,14074,7200C13998,7200,13901,7140,13765,7010C13653,6903,13605,6862,13415,6708C13210,6542,13122,6457,13084,6391C13051,6333,13021,6300,13002,6300C12994,6300,12972,6314,12952,6331C12877,6397,12761,6430,12726,6395C12718,6387,12709,6358,12705,6332C12671,6047,12562,5759,12357,5405C12226,5178,12181,5041,12151,4780C12132,4618,12117,4546,12061,4339C12041,4265,12007,4097,11954,3810C11940,3736,11922,3657,11912,3636C11891,3586,11838,3535,11776,3503L11727,3478L11634,3505C11492,3547,11447,3541,11156,3442C11025,3397,10915,3358,10912,3355C10909,3352,10913,3344,10922,3337C10953,3312,11048,3191,11113,3094C11257,2878,11364,2618,11484,2200C11514,2093,11546,1974,11555,1935C11582,1817,11610,1697,11620,1660C11626,1641,11642,1576,11656,1515C11690,1373,11700,1353,11746,1344C11809,1332,11913,1347,11996,1379C12039,1396,12189,1466,12328,1534C12563,1651,12580,1661,12580,1686C12580,1712,12545,1913,12509,2092C12499,2145,12490,2201,12490,2216C12490,2248,12600,2417,12671,2494C12731,2560,12745,2551,12754,2440C12771,2235,12868,1964,12988,1788C13058,1684,13192,1569,13317,1506C13611,1358,13994,1419,14212,1648C14363,1807,14461,2033,14491,2293C14505,2413,14497,2615,14475,2710C14440,2860,14366,3029,14257,3209C14226,3261,14200,3311,14200,3321C14200,3331,14211,3363,14225,3392C14345,3648,14459,4022,14490,4260C14514,4443,14546,4530,14639,4660C14711,4761,14775,4861,14800,4910C14855,5018,14863,5142,14830,5356C14813,5468,14801,5532,14759,5725C14746,5787,14748,5853,14765,5901C14829,6082,14830,6382,14768,6528C14761,6543,14743,6574,14727,6597C14695,6643,14695,6632,14716,6807C14722,6851,14718,6868,14693,6923C14668,6976,14661,7005,14655,7096C14646,7236,14628,7280,14569,7308C14506,7337,14470,7342,14431,7325ZM14559,7213C14590,7182,14614,7091,14608,7026L14605,6987L14521,6958C14394,6916,14351,6879,14265,6740C14190,6619,14104,6496,14033,6409C13614,5892,13627,5916,13453,5391C13413,5268,13381,5166,13383,5164C13398,5149,13489,5324,13580,5540C13700,5828,13777,5952,13980,6185C14136,6364,14170,6409,14285,6595C14403,6785,14473,6854,14567,6874C14593,6880,14601,6877,14613,6858C14626,6838,14626,6821,14609,6715C14589,6584,14583,6409,14600,6426C14605,6431,14622,6460,14637,6490C14673,6561,14703,6569,14720,6513C14743,6434,14752,6284,14741,6144C14728,5963,14714,5950,14647,6058C14617,6107,14608,6134,14599,6201C14583,6328,14560,6360,14482,6360C14431,6360,14382,6339,14349,6303C14311,6264,14223,6123,14157,6000C14112,5915,13930,5527,13930,5515C13930,5514,13898,5445,13859,5364C13741,5117,13690,5009,13690,5004C13690,4991,13713,5005,13750,5042C13854,5146,13979,5363,14037,5540C14097,5721,14359,6196,14417,6229C14459,6252,14497,6184,14485,6107C14476,6046,14423,5824,14383,5680C14340,5523,14300,5414,14145,5025C13981,4612,13960,4556,13912,4410C13873,4290,13863,4255,13819,4090C13758,3860,13700,3723,13582,3527C13400,3226,13202,3020,12905,2824C12749,2722,12676,2651,12559,2495C12521,2443,12485,2398,12478,2394C12461,2383,12446,2411,12410,2518C12321,2786,12156,3056,11924,3314L11826,3423L11851,3444C11865,3455,11897,3479,11923,3497C11984,3539,11998,3569,12011,3687C12039,3943,12089,4166,12162,4360C12232,4546,12238,4573,12250,4751C12269,5039,12284,5083,12491,5451C12628,5694,12674,5810,12720,6027C12736,6103,12752,6195,12756,6232C12760,6270,12768,6307,12775,6316C12794,6342,12836,6335,12896,6296C12965,6250,12977,6226,12962,6160C12932,6030,12763,5659,12630,5431C12596,5374,12571,5323,12572,5318C12578,5300,12704,5438,12771,5538C12855,5663,12923,5803,12985,5981C13043,6144,13090,6246,13146,6325C13207,6411,13376,6570,13620,6771C13656,6800,13687,6826,13690,6829C13743,6888,14022,7120,14039,7120C14071,7120,14140,7078,14146,7055C14160,6997,14029,6831,13718,6515C13427,6219,13365,6133,13240,5860C13128,5616,13090,5546,12996,5414C12949,5349,12913,5293,12916,5289C12924,5275,12979,5301,13025,5342C13098,5407,13153,5493,13274,5737C13483,6157,13534,6232,13756,6450C14036,6724,14051,6741,14204,6959C14356,7176,14422,7239,14498,7240C14522,7240,14540,7232,14559,7213ZM14621,6003C14626,5988,14640,5926,14650,5866C14661,5805,14685,5671,14704,5567C14749,5324,14764,5160,14751,5055C14738,4948,14733,4937,14638,4802C14513,4623,14478,4535,14440,4310C14382,3964,14374,3935,14277,3695C14174,3438,14126,3351,13966,3123C13907,3038,13887,2968,13886,2845C13885,2767,13889,2738,13902,2715C13968,2602,13979,2468,13933,2354C13900,2269,13824,2190,13754,2166C13693,2145,13561,2145,13489,2166C13370,2201,13231,2300,13112,2435C13052,2502,12970,2660,12970,2705C12971,2746,12988,2765,13111,2852C13250,2953,13306,3004,13415,3132C13613,3363,13763,3628,13853,3905C13901,4050,13910,4085,13956,4279C13977,4369,14002,4452,14011,4464C14026,4482,14031,4483,14066,4472C14088,4466,14139,4441,14180,4416C14221,4392,14258,4374,14262,4377C14271,4382,14241,4444,14202,4503C14171,4550,14172,4554,14267,4731C14439,5050,14480,5152,14480,5254C14480,5324,14461,5302,14414,5182C14332,4967,14123,4595,14085,4595C14055,4595,14055,4630,14083,4697C14166,4893,14248,5092,14291,5205C14387,5455,14513,5795,14522,5830C14544,5908,14592,6030,14601,6030C14606,6030,14615,6018,14621,6003Z" fill="rgb(0,0,0)" stroke="none" stroke-width="1"/><path id="ez05om0vgvk94" d="M5900,5103L5900,3700L6051,3700L6202,3700L6198,4530C6197,4987,6198,5360,6202,5360C6206,5360,6234,5318,6265,5268C6296,5217,6351,5128,6387,5070C6423,5012,6498,4889,6555,4795C6611,4702,6715,4531,6785,4415C6856,4300,6927,4180,6945,4150C6992,4070,7118,3861,7145,3820C7157,3801,7184,3758,7204,3725L7240,3666L7240,5048L7240,6430L7090,6430L6939,6430L6941,5608C6941,5156,6938,4784,6934,4783C6925,4780,6873,4867,6787,5025C6765,5063,6738,5111,6726,5130C6713,5149,6633,5282,6548,5425C6462,5568,6327,5793,6248,5925C6168,6058,6095,6179,6086,6195C6077,6212,6061,6239,6051,6255C6041,6272,6002,6335,5966,6395L5900,6505L5900,5103Z" fill="rgb(0,0,0)" stroke="none" stroke-width="1"/><path id="ez05om0vgvk95" d="M9532,5098L9535,3705L9688,3702L9842,3699L9838,4510C9837,4955,9838,5320,9841,5320C9844,5320,9874,5269,9906,5206C9995,5035,10089,4860,10175,4705C10218,4628,10265,4543,10280,4515C10295,4488,10311,4465,10316,4463C10324,4461,10395,4586,10566,4899C10582,4930,10631,5023,10674,5105C10764,5277,10789,5320,10798,5320C10802,5320,10804,4956,10802,4510L10799,3700L10949,3700L11100,3700L11100,5097C11100,5962,11096,6490,11091,6484C11081,6475,10948,6233,10857,6060C10830,6008,10802,5958,10796,5950C10789,5942,10778,5922,10770,5905C10762,5889,10736,5839,10711,5795C10687,5751,10657,5697,10645,5675C10506,5414,10324,5090,10316,5090C10310,5090,10277,5143,10243,5208C10208,5272,10165,5352,10147,5385C10111,5451,10050,5563,9986,5681C9738,6138,9544,6490,9537,6490C9533,6490,9531,5863,9532,5098Z" fill="rgb(0,0,0)" stroke="none" stroke-width="1"/><path id="ez05om0vgvk96" d="M8377,6464C8364,6422,8306,6219,8280,6125C8252,6023,8179,5763,8115,5540C8095,5471,8059,5341,8034,5250C8009,5159,7980,5058,7970,5025C7960,4992,7921,4857,7884,4725C7816,4480,7749,4242,7706,4090C7655,3913,7600,3714,7600,3707C7600,3703,7674,3700,7763,3700L7927,3700L7949,3788C7962,3836,7988,3938,8009,4015L8045,4155L8376,4158C8634,4160,8710,4157,8717,4148C8723,4141,8753,4037,8785,3918L8844,3700L9007,3700C9097,3700,9170,3702,9170,3705C9170,3713,9130,3860,9100,3960C9085,4012,9060,4100,9045,4155C9018,4254,9013,4274,8964,4440C8950,4487,8928,4566,8915,4615C8902,4665,8871,4777,8846,4865C8821,4953,8786,5075,8769,5135C8752,5196,8729,5274,8719,5310C8708,5346,8663,5506,8619,5665C8574,5825,8525,5998,8510,6050C8494,6102,8463,6215,8440,6300C8393,6474,8385,6493,8377,6464ZM8431,5299C8467,5142,8541,4844,8592,4655C8623,4540,8640,4472,8640,4460C8640,4454,8546,4450,8385,4450C8095,4450,8118,4441,8145,4540C8153,4570,8185,4692,8215,4810C8246,4928,8277,5045,8285,5070C8297,5106,8370,5449,8370,5467C8370,5470,8375,5470,8382,5468C8389,5465,8411,5390,8431,5299Z" fill="rgb(0,0,0)" stroke="none" stroke-width="1"/><path id="ez05om0vgvk97" d="M15658,6455C15549,6428,15473,6386,15396,6308C15281,6192,15231,6064,15230,5883C15230,5631,15327,5434,15655,5025C15856,4774,15922,4678,15978,4558C16022,4465,16033,4415,16034,4314C16034,4232,16032,4218,16002,4157C15964,4080,15917,4039,15833,4008C15711,3965,15536,3990,15381,4075C15345,4094,15315,4109,15314,4107C15307,4099,15180,3848,15180,3842C15180,3829,15273,3778,15351,3749C15619,3651,15941,3677,16113,3812C16218,3894,16282,3986,16326,4120C16352,4197,16354,4218,16354,4345C16354,4472,16352,4493,16326,4570C16266,4749,16227,4811,15895,5244C15778,5397,15640,5585,15640,5592C15640,5596,15629,5616,15615,5636C15551,5730,15531,5899,15571,6005C15609,6107,15709,6175,15840,6187C15904,6193,16028,6163,16099,6124C16123,6111,16143,6100,16144,6100C16144,6100,16174,6157,16210,6226C16272,6346,16274,6352,16256,6365C16225,6388,16086,6438,16006,6455C15914,6473,15736,6473,15658,6455Z" fill="rgb(0,0,0)" stroke="none" stroke-width="1"/><path id="ez05om0vgvk98" d="M16630,6300L16630,6160L16829,6160C16939,6160,17035,6157,17044,6154C17058,6148,17060,6032,17060,4934L17060,3720L17215,3720L17370,3720L17370,4934C17370,6032,17372,6148,17386,6154C17395,6157,17491,6160,17601,6160L17800,6160L17800,6300L17800,6440L17215,6440L16630,6440L16630,6300Z" fill="rgb(0,0,0)" stroke="none" stroke-width="1"/><path id="ez05om0vgvk99" d="M18220,5080L18220,3720L18675,3720L19130,3720L19130,3865L19130,4010L18830,4010L18530,4010L18532,4403L18535,4795L18790,4800L19045,4805L19045,4945L19045,5085L18790,5090L18535,5095L18532,5621L18530,6148L18552,6154C18565,6157,18700,6160,18853,6160L19130,6160L19130,6300L19130,6440L18675,6440L18220,6440L18220,5080Z" fill="rgb(0,0,0)" stroke="none" stroke-width="1"/><path id="ez05om0vgvk910" d="M16605,3350C16554,3339,16529,3320,16509,3277C16486,3226,16485,3155,16506,3104C16515,3082,16558,3028,16602,2983C16680,2904,16683,2899,16687,2848C16692,2784,16682,2767,16639,2767C16600,2767,16580,2791,16580,2837C16580,2863,16575,2871,16556,2876C16509,2888,16495,2878,16492,2831C16488,2777,16511,2723,16548,2695C16569,2680,16591,2675,16640,2675C16727,2675,16764,2700,16785,2775C16814,2873,16793,2928,16679,3047C16599,3131,16580,3170,16594,3225C16603,3258,16635,3275,16666,3261C16683,3254,16691,3239,16696,3210L16703,3169L16749,3172L16795,3175L16791,3215C16787,3260,16771,3297,16743,3323C16719,3344,16646,3358,16605,3350Z" fill="rgb(0,0,0)" stroke="none" stroke-width="1"/><path id="ez05om0vgvk911" d="M18975,3350C18923,3339,18899,3320,18879,3277C18835,3180,18858,3102,18963,2993C19049,2904,19073,2856,19059,2807C19048,2769,19046,2767,19010,2767C18970,2767,18961,2777,18952,2831C18945,2874,18944,2875,18905,2875C18867,2875,18865,2874,18862,2840C18857,2789,18875,2738,18910,2705C18937,2679,18947,2676,19008,2676C19117,2675,19160,2719,19160,2833C19160,2920,19138,2963,19055,3043C18986,3108,18960,3150,18960,3199C18960,3232,18990,3270,19015,3270C19040,3270,19070,3232,19070,3200C19070,3171,19072,3170,19115,3170L19160,3170L19160,3213C19160,3309,19075,3373,18975,3350Z" fill="rgb(0,0,0)" stroke="none" stroke-width="1"/><path id="ez05om0vgvk912" d="M15235,3339C15232,3331,15231,3181,15232,3005L15235,2685L15345,2682C15441,2680,15459,2682,15488,2700C15545,2735,15550,2763,15550,3016C15550,3268,15544,3297,15486,3327C15444,3350,15243,3359,15235,3339ZM15436,3239C15453,3220,15455,3198,15458,3021C15461,2787,15458,2777,15387,2772L15340,2769L15340,3008C15340,3139,15343,3250,15347,3253C15362,3268,15418,3259,15436,3239Z" fill="rgb(0,0,0)" stroke="none" stroke-width="1"/><path id="ez05om0vgvk913" d="M15897,3344C15893,3340,15890,3189,15890,3008L15890,2680L16030,2680L16170,2680L16170,2725L16170,2770L16080,2770L15990,2770L15990,2870L15990,2969L16063,2972L16135,2975L16138,3017L16141,3059L16068,3062L15995,3065L15995,3160L15995,3255L16083,3258L16171,3261L16168,3303L16165,3345L16034,3348C15963,3349,15901,3347,15897,3344Z" fill="rgb(0,0,0)" stroke="none" stroke-width="1"/><path id="ez05om0vgvk914" d="M17125,3338C17122,3331,17121,3181,17122,3005L17125,2685L17173,2682L17220,2679L17218,3012L17215,3345L17172,3348C17144,3350,17128,3347,17125,3338Z" fill="rgb(0,0,0)" stroke="none" stroke-width="1"/><path id="ez05om0vgvk915" d="M17622,3330C17565,3295,17560,3267,17560,3015C17560,2771,17564,2746,17614,2701C17636,2680,17651,2676,17708,2676C17762,2675,17781,2679,17807,2698C17853,2730,17865,2776,17865,2920L17865,3045L17795,3045L17725,3045L17722,3007C17719,2975,17722,2969,17744,2960C17769,2951,17770,2947,17770,2871C17770,2785,17761,2768,17713,2768C17664,2768,17660,2785,17660,3017C17660,3217,17661,3231,17680,3250C17722,3292,17762,3264,17770,3189L17775,3135L17820,3135L17865,3135L17862,3193C17857,3302,17820,3343,17722,3348C17668,3350,17649,3347,17622,3330Z" fill="rgb(0,0,0)" stroke="none" stroke-width="1"/><path id="ez05om0vgvk916" d="M18207,3343C18203,3340,18200,3189,18200,3008L18200,2680L18245,2680L18290,2680L18290,2905C18290,3029,18294,3130,18299,3130C18304,3130,18319,3084,18334,3028C18349,2971,18375,2871,18393,2805L18425,2685L18478,2682L18530,2679L18528,3012L18525,3345L18485,3345L18445,3345L18440,3160C18436,3012,18433,2980,18424,3000C18418,3014,18409,3041,18405,3060C18394,3112,18332,3328,18325,3340C18318,3351,18217,3354,18207,3343Z" fill="rgb(0,0,0)" stroke="none" stroke-width="1"/></g></svg>